<svg width="64" height="64" viewBox="0 0 64 64" fill="none" xmlns="http://www.w3.org/2000/svg">
<path d="M29.8729 25.004C29.7608 22.6872 31.6259 20.7324 34.0424 20.6285L34.142 20.6366C36.5504 20.6324 38.5133 22.3978 38.5176 24.8061L38.6868 31.3415C38.7989 33.6583 36.9338 35.6131 34.5173 35.717L34.4177 35.7089C32.0093 35.7131 30.0464 33.9477 30.0421 31.5394L29.8729 25.004Z" fill="#FFDD67"/>
<path d="M38.7965 25.4761C38.818 23.1567 40.7925 21.3125 43.2109 21.3478L43.3099 21.3617C45.7145 21.4961 47.5726 23.3715 47.4382 25.7761L47.2311 32.3104C47.2096 34.6298 45.235 36.4741 42.8166 36.4387L42.7176 36.4248C40.313 36.2905 38.4549 34.415 38.5893 32.0104L38.7965 25.4761Z" fill="#FFDD67"/>
<path d="M21.0911 27.7688C20.6011 25.5017 22.1207 23.2677 24.4875 22.7693L24.5872 22.761C26.9622 22.3623 29.1879 23.7823 29.5866 26.1573L30.8243 32.5767C31.3143 34.8438 29.7947 37.0778 27.4279 37.5762L27.3283 37.5845C24.9532 37.9832 22.7275 36.5632 22.3288 34.1882L21.0911 27.7688" fill="#FFDD67"/>
<path d="M13.0545 31.0567C12.7447 28.758 14.4357 26.6507 16.8344 26.3405L16.9344 26.34C19.3335 26.1298 21.4403 27.7208 21.6506 30.1199L22.3783 36.6169C22.6882 38.9156 20.9972 41.0228 18.5985 41.3331L18.4985 41.3335C16.0993 41.5438 13.9925 39.9528 13.7823 37.5536L13.0545 31.0567" fill="#FFDD67"/>
<path d="M45.1 35.4V31.3C45.1 31.3 13.4 31.4 13.4 33.9C13.4 33.9 11.9 45 15 52C19.6 62.4 39.4 65.2 48.5 48.3L45.1 43.8" fill="#FFDD67"/>
<path d="M38.8276 30.0012C35.192 27.8866 34.5687 31.2096 28.4401 31.411C25.7393 31.5117 24.5967 36.8486 28.6478 38.7619C34.2571 41.4807 34.6726 37.6542 36.1268 39.1647C37.5811 40.7758 38.9315 41.0779 40.178 42.8904C41.1128 44.1995 48.0725 42.1856 48.7996 39.4667C50.15 34.1298 44.4369 33.3242 38.8276 30.0012Z" fill="#EBA352"/>
<path d="M25.7 36.3C28.1 36 29.8 34 29.5 31.7L28.8 25.2C28.7 24.6 28.3 24.05 28 23.55C29.4 24.35 30.1 25.3 30.3 26.7L31 33.2C31.3 35.5 29.6 37.5 27.2 37.8H27.1C25.4 38 23.8 37.1 23 35.8C23.8 36.2 24.7 36.4 25.7 36.3Z" fill="#EBA352"/>
<path d="M34.2 34.05C36.6 33.75 38.3 31.75 38 29.45L37.3 22.95C37.2 22.35 36.8 21.8 36.5 21.3C37.9 22.1 38.6 23.05 38.8 24.45L39.5 30.95C39.8 33.25 38.1 35.25 35.7 35.55H35.6C33.9 35.75 32.3 34.85 31.5 33.55C32.3 33.95 33.2 34.15 34.2 34.05Z" fill="#EBA352"/>
<path d="M42.5958 34.7562C45.0091 34.5948 46.8214 32.696 46.6542 30.3825L46.3295 23.853C46.2642 23.2482 45.8965 22.6761 45.6258 22.1597C46.9774 23.0389 47.6216 24.0276 47.7407 25.4368L48.0654 31.9663C48.2325 34.2798 46.4202 36.1786 44.0069 36.34L43.9071 36.3342C42.1984 36.4361 40.6529 35.4455 39.929 34.1016C40.7047 34.547 41.5917 34.7984 42.5958 34.7562Z" fill="#EBA352"/>
<path d="M17.7 40.3C20.1 40 21.8 38 21.5 35.7L20.8 29.2C20.7 28.6 20.4 27.8 20.1 27.3C21.5 28.1 22.1 29.3 22.3 30.7L23 37.2C23.3 39.5 21.6 41.5 19.2 41.8H19.1C17.4 42 15.8 41.1 15 39.8C15.8 40.2 16.7 40.4 17.7 40.3Z" fill="#EBA352"/>
<path d="M43.7897 39.9316C38.9897 37.6316 28.0897 41.6316 30.2897 51.6316C30.2897 41.2316 39.6897 39.4316 43.7897 39.9316Z" fill="#EBA352"/>
<path d="M38.8998 30.9326C35.2897 29.0249 34.5877 32.0228 28.4705 32.2045C25.7629 32.2953 24.5596 37.2918 28.6711 39.1087C34.2869 41.6524 34.7883 38.0186 36.092 39.4721C37.5962 40.9257 38.8998 41.289 40.2035 43.0151C41.106 44.287 38.6993 49.0109 38.6993 49.0109C38.6993 49.0109 43.0479 51.6488 47.0592 49.3776C49.6665 44.6536 48.928 42.5609 48.8277 39.8355C48.6272 33.3855 44.6159 34.0214 38.8998 30.9326Z" fill="#FFDD67"/>
<path d="M39.3665 43.6C39.6665 44 39.5665 44.8 39.4665 45.7C39.8665 44.3 40.1665 42.9 39.7665 42.3C38.5665 40.4 37.8665 40 36.3665 38.4C34.9665 36.9 34.5665 40.8 28.9665 38C26.8665 37 26.1665 35 26.3665 33.3C25.5665 35.1 25.9665 37.9 28.6665 39.3C34.2665 42.1 34.7665 38.1 36.0665 39.7C37.4665 41.3 38.1665 41.7 39.3665 43.6Z" fill="#EBA352"/>
<path d="M46 33.8C49.8486 35.5224 49.3358 45.6429 46.5 50.2359C39 61.1919 24 61.6899 16 53.7219C20 61.1919 36.5 64.6779 47.4975 51.0455C50.6371 46.3568 52.0767 34.9483 46 33.8Z" fill="#EBA352"/>
</svg>
