<svg width="120" height="120" viewBox="0 0 120 120" fill="none" xmlns="http://www.w3.org/2000/svg">
<path d="M63.75 79.3125L78.375 82.125L90.375 20.4375C91.125 16.3125 88.5 12.1875 84.5625 11.4375C80.4375 10.6875 76.5 13.5 75.75 17.625L63.75 79.3125Z" fill="#FFDD67"/>
<path d="M84.75 11.4375C84.1875 11.25 83.8125 11.25 83.25 11.25C86.625 12.5625 88.5 16.125 87.75 19.875L75.75 81.5625L78.375 82.125L90.375 20.4375C91.3125 16.125 88.6875 12.1875 84.75 11.4375Z" fill="#EBA352"/>
<path d="M48.75 81.1875H66.375V13.125C66.375 8.0625 62.4375 3.75 57.5625 3.75C52.875 3.75 48.75 7.875 48.75 13.125V81.1875Z" fill="#FFDD67"/>
<path d="M57.75 3.75C57.375 3.75 56.8125 3.75 56.4375 3.9375C60.75 4.6875 63.9375 8.4375 63.9375 13.125V81.375H66.5625V13.125C66.5625 7.875 62.625 3.75 57.75 3.75Z" fill="#EBA352"/>
<path d="M39.375 81L54.375 77.0625L38.0625 15C36.9375 10.6875 32.625 8.06253 28.5 9.00003C24.375 10.125 21.9375 14.4375 23.0625 18.75L39.375 81Z" fill="#FFDD67"/>
<path d="M28.5 9.00003L27.375 9.56253C31.125 9.37503 34.5 11.8125 35.625 15.75L51.9375 77.8125L54.5625 77.0625L38.0625 15C36.9375 10.6875 32.625 8.06253 28.5 9.00003Z" fill="#EBA352"/>
<path d="M7.50002 25.125C3.93752 26.8125 2.81252 31.3125 4.68752 35.0625L29.4375 84.375L42 78L17.25 28.6875C15.375 24.9375 11.0625 23.4375 7.50002 25.125Z" fill="#FFDD67"/>
<path d="M7.5 25.125C7.125 25.3125 6.75 25.5 6.375 25.875C9.5625 24.9375 13.125 26.625 14.8125 30L39.5625 79.3125L42 78.1875L17.25 28.6875C15.375 24.9375 11.0625 23.4375 7.5 25.125Z" fill="#EBA352"/>
<path d="M115.687 54.9375C112.687 49.125 103.312 49.5 93.75 60C87 67.3125 85.6875 69.75 78.9375 69.5625V61.875C78.9375 61.875 64.5 51.1875 35.8125 56.0625C35.8125 56.0625 19.5 58.3125 19.5 66.9375C19.5 66.9375 16.6875 87.75 22.5 100.875C31.125 120.375 75.375 125.438 89.25 92.25C92.0625 85.6875 97.6875 80.8125 102.75 74.625C108.562 67.125 118.875 61.125 115.687 54.9375Z" fill="#FFDD67"/>
<path d="M115.688 54.9375C115.125 53.8125 114.375 53.0625 113.438 52.3125C113.625 52.5 113.812 52.6875 113.812 53.0625C117 59.4375 106.688 65.25 100.5 72.75C95.4375 78.9375 89.8125 83.8125 87 90.375C75 119.062 40.125 119.062 25.5 105.937C38.8125 120.937 76.3125 122.437 88.875 92.25C91.6875 85.6875 97.3125 80.8125 102.375 74.625C108.563 67.125 118.875 61.125 115.688 54.9375ZM80.8125 69.5625C68.625 65.0625 46.875 73.3125 49.875 95.25C49.875 74.8125 68.4375 69.75 78.5625 69.75C80.0625 69.5625 80.8125 69.5625 80.8125 69.5625Z" fill="#EBA352"/>
</svg>
