<svg width="120" height="120" viewBox="0 0 120 120" fill="none" xmlns="http://www.w3.org/2000/svg">
<path d="M71.8126 78H87.3751V15.1875C87.3751 11.0625 83.8126 7.5 79.6876 7.5C75.3751 7.5 72.0001 11.0625 72.0001 15.375C71.8126 15.375 71.8126 78 71.8126 78Z" fill="#FFDD67"/>
<path d="M79.6876 7.5C79.1251 7.5 78.7501 7.5 78.3751 7.6875C81.9376 8.25 84.7501 11.4375 84.7501 15.1875V78H87.5626V15.1875C87.3751 10.875 83.8126 7.5 79.6876 7.5Z" fill="#EBA352"/>
<path d="M56.0117 46.8825C55.8016 42.5386 59.2987 38.8732 63.8295 38.6784L64.0164 38.6937C68.532 38.6857 72.2125 41.9959 72.2205 46.5115L72.5379 58.7654C72.7479 63.1093 69.2509 66.7747 64.72 66.9695L64.5332 66.9542C60.0176 66.9622 56.337 63.652 56.329 59.1364L56.0117 46.8825Z" fill="#FFDD67"/>
<path d="M39.5459 52.0666C38.627 47.8157 41.4764 43.627 45.9141 42.6926L46.1009 42.677C50.5542 41.9294 54.7273 44.5918 55.4749 49.0451L57.7955 61.0814C58.7144 65.3323 55.8651 69.521 51.4274 70.4555L51.2405 70.471C46.7872 71.2186 42.6141 68.5562 41.8665 64.1029L39.5459 52.0666Z" fill="#FFDD67"/>
<path d="M24.4772 58.2313C23.8962 53.9212 27.0669 49.9701 31.5644 49.3884L31.7519 49.3876C36.2503 48.9934 40.2006 51.9765 40.5948 56.4749L41.9594 68.6567C42.5403 72.9667 39.3697 76.9178 34.8721 77.4995L34.6846 77.5003C30.1863 77.8946 26.236 74.9114 25.8417 70.4131L24.4772 58.2313Z" fill="#FFDD67"/>
<path d="M84.5626 66.375V58.6875C84.5626 58.6875 25.1251 58.875 25.1251 63.5625C25.1251 63.5625 22.3126 84.375 28.1251 97.5C36.7501 117 73.875 122.25 90.9375 90.5625L84.5626 82.125" fill="#FFDD67"/>
<path d="M72.8017 56.2523C65.9849 52.2874 64.8163 58.518 53.3251 58.8956C48.2612 59.0844 46.1188 69.0912 53.7147 72.6785C64.232 77.7763 65.0111 70.6016 67.7378 73.4337C70.4645 76.4547 72.9965 77.0211 75.3337 80.4196C77.0866 82.8741 90.1359 79.098 91.4993 74.0002C94.0312 63.9934 83.3191 62.4829 72.8017 56.2523Z" fill="#EBA352"/>
<path d="M48.1875 68.0625C52.6875 67.5 55.875 63.75 55.3125 59.4375L54 47.25C53.8125 46.125 53.0625 45.0938 52.5 44.1562C55.125 45.6562 56.4375 47.4375 56.8125 50.0625L58.125 62.25C58.6875 66.5625 55.5 70.3125 51 70.875H50.8125C47.625 71.25 44.625 69.5625 43.125 67.125C44.625 67.875 46.3125 68.25 48.1875 68.0625Z" fill="#EBA352"/>
<path d="M64.125 63.8438C68.625 63.2812 71.8125 59.5313 71.25 55.2188L69.9375 43.0313C69.75 41.9063 69 40.875 68.4375 39.9375C71.0625 41.4375 72.375 43.2188 72.75 45.8438L74.0625 58.0313C74.625 62.3438 71.4375 66.0938 66.9375 66.6562H66.75C63.5625 67.0312 60.5625 65.3438 59.0625 62.9062C60.5625 63.6562 62.25 64.0312 64.125 63.8438Z" fill="#EBA352"/>
<path d="M33.1875 75.5625C37.6875 75 40.875 71.25 40.3125 66.9375L39 54.75C38.8125 53.625 38.25 52.125 37.6875 51.1875C40.3125 52.6875 41.4375 54.9375 41.8125 57.5625L43.125 69.75C43.6875 74.0625 40.5 77.8125 36 78.375H35.8125C32.625 78.75 29.625 77.0625 28.125 74.625C29.625 75.375 31.3125 75.75 33.1875 75.5625Z" fill="#EBA352"/>
<path d="M82.1056 74.8717C73.1056 70.5592 52.6681 78.0592 56.7931 96.8092C56.7931 77.3092 74.4181 73.9342 82.1056 74.8717Z" fill="#EBA352"/>
<path d="M72.9372 57.9987C66.1682 54.4216 64.852 60.0427 53.3823 60.3834C48.3055 60.5537 46.0492 69.9222 53.7583 73.3289C64.2879 78.0983 65.2281 71.2849 67.6724 74.0103C70.4928 76.7356 72.9372 77.417 75.3816 80.6534C77.0738 83.0381 72.5612 91.8955 72.5612 91.8955C72.5612 91.8955 80.7148 96.8414 88.2359 92.583C93.1247 83.7256 91.74 79.8017 91.552 74.6916C91.176 62.5978 83.6548 63.7901 72.9372 57.9987Z" fill="#FFDD67"/>
<path d="M73.8121 81.75C74.3746 82.5 74.1871 84 73.9996 85.6875C74.7496 83.0625 75.3121 80.4375 74.5621 79.3125C72.3121 75.75 70.9996 75 68.1871 72C65.5621 69.1875 64.8121 76.5 54.3121 71.25C50.3746 69.375 49.0621 65.625 49.4371 62.4375C47.9371 65.8125 48.6871 71.0625 53.7496 73.6875C64.2496 78.9375 65.1871 71.4375 67.6246 74.4375C70.2496 77.4375 71.5621 78.1875 73.8121 81.75Z" fill="#EBA352"/>
<path d="M86.25 63.375C93.4661 66.6045 92.5046 85.5804 87.1875 94.1924C73.125 114.735 45 115.669 30 100.729C37.5 114.735 68.4375 121.271 89.0578 95.7104C94.9446 86.919 97.6438 65.528 86.25 63.375Z" fill="#EBA352"/>
</svg>
