<svg width="120" height="120" viewBox="0 0 120 120" fill="none" xmlns="http://www.w3.org/2000/svg">
<path d="M63.75 79.3125L78.375 82.125L90.375 20.4375C91.125 16.3125 88.5 12.1875 84.5625 11.4375C80.4375 10.6875 76.5 13.5 75.75 17.625L63.75 79.3125Z" fill="#FFDD67"/>
<path d="M84.75 11.4375C84.1875 11.25 83.8125 11.25 83.25 11.25C86.625 12.5625 88.5 16.125 87.75 19.875L75.75 81.5625L78.375 82.125L90.375 20.4375C91.3125 16.125 88.6875 12.1875 84.75 11.4375Z" fill="#EBA352"/>
<path d="M48.75 81.1875H66.375V13.125C66.375 8.0625 62.4375 3.75 57.5625 3.75C52.875 3.75 48.75 7.875 48.75 13.125V81.1875Z" fill="#FFDD67"/>
<path d="M57.75 3.75C57.375 3.75 56.8125 3.75 56.4375 3.9375C60.75 4.6875 63.9375 8.4375 63.9375 13.125V81.375H66.5625V13.125C66.5625 7.875 62.625 3.75 57.75 3.75Z" fill="#EBA352"/>
<path d="M115.687 54.9375C112.687 49.125 103.312 49.5 93.75 60C87 67.3125 85.6875 69.75 78.9375 69.5625V61.875C78.9375 61.875 64.5 51.1875 35.8125 56.0625C35.8125 56.0625 19.5 58.3125 19.5 66.9375C19.5 66.9375 16.6875 87.75 22.5 100.875C31.125 120.375 75.375 125.438 89.25 92.25C92.0625 85.6875 97.6875 80.8125 102.75 74.625C108.562 67.125 118.875 61.125 115.687 54.9375Z" fill="#FFDD67"/>
<path d="M115.688 54.9375C115.125 53.8125 114.375 53.0625 113.438 52.3125C113.625 52.5 113.812 52.6875 113.812 53.0625C117 59.4375 106.688 65.25 100.5 72.75C95.4375 78.9375 89.8125 83.8125 87 90.375C75 119.062 40.125 119.062 25.5 105.937C38.8125 120.937 76.3125 122.437 88.875 92.25C91.6875 85.6875 97.3125 80.8125 102.375 74.625C108.562 67.125 118.875 61.125 115.688 54.9375ZM80.8125 69.5625C68.625 65.0625 46.875 73.3125 49.875 95.25C49.875 74.8125 68.4375 69.75 78.5625 69.75C80.0625 69.5625 80.8125 69.5625 80.8125 69.5625Z" fill="#EBA352"/>
<path d="M33.8143 50.0941C33.2518 45.7816 36.4393 41.8441 40.9393 41.2816H41.1268C45.6268 40.9066 49.5644 43.9066 49.9394 48.4066L51.2518 60.5941C51.8143 64.9066 48.6268 68.8441 44.1268 69.4066H43.9393C39.4393 69.7816 35.5018 66.7816 35.1268 62.2816L33.8143 50.0941Z" fill="#FFDD67"/>
<path d="M41.5018 66.7816C46.0018 66.2191 49.1893 62.4691 48.6268 58.1566L47.3143 45.9691C47.1268 44.8441 46.5643 43.3441 46.0018 42.4066C48.6268 43.9066 49.7518 46.1566 50.1268 48.7816L51.4393 60.9691C52.0018 65.2816 48.8143 69.0316 44.3143 69.5941H44.1268C40.9393 69.9691 37.9393 68.2816 36.4393 65.8441C37.9393 66.5941 39.6268 66.9691 41.5018 66.7816Z" fill="#EBA352"/>
<path d="M18.8143 57.5941C18.2518 53.2816 21.4393 49.3441 25.9393 48.7816H26.1268C30.6268 48.4066 34.5644 51.4066 34.9394 55.9066L36.2518 68.0941C36.8143 72.4066 33.6268 76.3441 29.1268 76.9066H28.9393C24.4393 77.2816 20.5018 74.2816 20.1268 69.7816L18.8143 57.5941Z" fill="#FFDD67"/>
<path d="M26.5018 74.2816C31.0018 73.7191 34.1893 69.9691 33.6268 65.6566L32.3143 53.4691C32.1268 52.3441 31.5643 50.8441 31.0018 49.9066C33.6268 51.4066 34.7518 53.6566 35.1268 56.2816L36.4393 68.4691C37.0018 72.7816 33.8143 76.5316 29.3143 77.0941H29.1268C25.9393 77.4691 22.9393 75.7816 21.4393 73.3441C22.9393 74.0941 24.6268 74.4691 26.5018 74.2816Z" fill="#EBA352"/>
</svg>
