<svg width="120" height="120" viewBox="0 0 120 120" fill="none" xmlns="http://www.w3.org/2000/svg">
<path d="M69.9375 59.8125C69 63.9375 71.625 68.25 75.9375 69.1875C80.25 70.125 84.5625 67.5 85.5 63.375L96.9375 14.25C97.875 10.125 95.25 5.81246 90.9375 4.87496C86.625 3.93746 82.3125 6.56246 81.375 10.6875L69.9375 59.8125Z" fill="#FFDD67"/>
<path d="M72.9375 66.75C77.4375 67.6875 81.5625 65.0625 82.6875 60.9375L94.125 11.8125C94.6875 9.5625 94.125 7.3125 92.8125 5.625C96.75 7.3125 98.0625 10.6875 97.3125 14.4375L85.875 63.5625C84.9375 67.6875 80.625 70.5 76.3125 69.375C74.25 69 72.75 67.875 71.625 66.375C71.8125 66.375 72.375 66.5625 72.9375 66.75Z" fill="#EBA352"/>
<path d="M84.75 64.6874C84.75 64.6874 68.4375 48.5624 39.5625 56.6249C39.5625 56.6249 22.5 59.6249 23.4375 68.2499C23.4375 68.2499 22.875 89.6249 30.1875 102.375C41.25 121.312 83.8125 124.312 94.5 89.2499C96.75 82.3124 95.0625 63.5624 84.75 64.6874Z" fill="#FFDD67"/>
<path d="M55.6875 62.625C56.4375 66.9375 60.75 69.5625 65.0625 68.8125C69.375 68.0625 72.375 63.9375 71.625 59.625L62.25 10.125C61.5 5.81248 57.1875 3.18748 52.875 3.93748C48.5625 4.68748 45.5625 8.81248 46.5 13.125L55.6875 62.625Z" fill="#FFDD67"/>
<path d="M61.125 67.6875C65.625 66.9375 68.4375 62.8125 67.6875 58.5L58.3125 9C57.75 6.75 56.25 4.875 54.375 3.75C58.5 3.75 61.5 6.375 62.25 10.125L71.625 59.625C72.375 63.9375 69.5625 68.0625 65.25 68.8125C63.1875 69.1875 61.3125 68.8125 59.625 67.875C60 67.875 60.5625 67.875 61.125 67.6875Z" fill="#EBA352"/>
<path d="M22.5 60.1875C21.9375 55.875 25.125 51.9375 29.625 51.375H29.8125C34.125 51 38.25 54 38.625 58.5L39.9375 70.6875C40.5 75 37.3125 78.9375 32.8125 79.5H32.625C28.125 79.875 24.1875 76.875 23.8125 72.375L22.5 60.1875Z" fill="#FFDD67"/>
<path d="M37.6875 51.375C37.125 47.0625 40.3125 43.125 44.8125 42.5625H45C49.5 42.1875 53.4375 45.1875 53.8125 49.6875L55.125 61.875C55.6875 66.1875 52.5 70.125 48 70.6875H47.8125C43.3125 71.0625 39.375 68.0625 39 63.5625L37.6875 51.375Z" fill="#FFDD67"/>
<path d="M30.1875 76.875C34.6875 76.3125 37.6875 72.5625 37.3125 68.0625L36 55.875C35.8125 54.75 35.25 53.4375 34.6875 52.3125C37.5 53.625 38.4375 55.875 38.8125 58.5L40.125 70.6875C40.6875 75 37.5 78.9375 33.1875 79.3125C30 79.6875 27 78 25.5 75.5625C26.625 76.5 28.3125 77.0625 30.1875 76.875ZM45.1875 68.0625C49.6875 67.5 52.875 63.75 52.3125 59.4375L51 47.25C50.8125 46.125 50.25 44.625 49.6875 43.6875C52.3125 45.1875 53.4375 47.4375 53.8125 50.0625L55.125 62.25C55.6875 66.5625 52.5 70.3125 48 70.875H47.8125C44.625 71.25 41.625 69.5625 40.125 67.125C41.625 67.875 43.3125 68.25 45.1875 68.0625ZM77.625 76.5C68.625 72.1875 48.1875 79.6875 52.3125 98.4375C52.3125 78.9375 69.9375 75.5625 77.625 76.5Z" fill="#EBA352"/>
<path d="M74.25 57.1876C67.6875 53.2501 66.5625 59.4376 55.5 59.8126C50.625 60.0001 48.5625 69.9376 55.875 73.5001C66 78.5626 66.75 71.4376 69.375 74.2501C72 77.2501 74.4375 77.8126 76.6875 81.1876C78.375 83.6251 90.9375 79.8751 92.25 74.8126C94.6875 64.8751 84.375 63.3751 74.25 57.1876Z" fill="#EBA352"/>
<path d="M75 58.8751C68.25 54.9376 66.9375 61.1251 55.5 61.5001C50.4375 61.6876 48.1875 72.0001 55.875 75.7501C66.375 81.0001 67.3125 73.5001 69.75 76.5001C72.5625 79.5001 75 80.2501 77.4375 83.8126C79.125 86.4376 74.625 96.1876 74.625 96.1876C74.625 96.1876 87.5625 105.375 90.1875 100.125C95.0625 90.3751 93.75 82.8751 93.5625 77.2501C93.1875 63.9376 85.6875 65.2501 75 58.8751Z" fill="#FFDD67"/>
<path d="M87.9375 65.4375C95.0625 68.8125 94.6875 87.375 89.4375 96.375C76.125 118.688 46.875 118.312 33.1875 106.312C45.9375 120 77.0625 121.312 91.5 98.25C97.3125 89.0625 99.1875 67.6875 87.9375 65.4375Z" fill="#EBA352"/>
<path d="M75.9375 84C76.5 84.75 76.3125 86.25 76.125 87.9375C76.875 85.3125 77.4375 82.6875 76.6875 81.5625C74.4375 78 73.125 77.25 70.3125 74.25C67.6875 71.4375 66.9375 78.75 56.4375 73.5C52.5 71.625 51.1875 67.875 51.5625 64.6875C50.0625 68.0625 50.8125 73.3125 55.875 75.9375C66.375 81.1875 67.3125 73.6875 69.75 76.6875C72.375 79.6875 73.6875 80.4375 75.9375 84Z" fill="#EBA352"/>
</svg>
