<svg width="120" height="120" viewBox="0 0 120 120" fill="none" xmlns="http://www.w3.org/2000/svg">
<path d="M56.25 79.3125L41.625 82.125L29.625 20.4375C28.875 16.3125 31.5 12.1875 35.4375 11.4375C39.5625 10.6875 43.5 13.5 44.25 17.625L56.25 79.3125Z" fill="#FFDD67"/>
<path d="M35.25 11.4375C35.8125 11.25 36.1875 11.25 36.75 11.25C33.375 12.5625 31.5 16.125 32.25 19.875L44.25 81.5625L41.625 82.125L29.625 20.4375C28.6875 16.125 31.3125 12.1875 35.25 11.4375Z" fill="#EBA352"/>
<path d="M71.25 81.1875H53.625V13.125C53.625 8.0625 57.5625 3.75 62.4375 3.75C67.125 3.75 71.25 7.875 71.25 13.125V81.1875Z" fill="#FFDD67"/>
<path d="M62.25 3.75C62.625 3.75 63.1875 3.75 63.5625 3.9375C59.25 4.6875 56.0625 8.4375 56.0625 13.125V81.375H53.4375V13.125C53.4375 7.875 57.375 3.75 62.25 3.75Z" fill="#EBA352"/>
<path d="M80.6251 81L65.6251 77.0625L81.9376 15C83.0626 10.6875 87.3751 8.06253 91.5001 9.00003C95.6251 10.125 98.0626 14.4375 96.9376 18.75L80.6251 81Z" fill="#FFDD67"/>
<path d="M91.5 9.00003L92.625 9.56253C88.875 9.37503 85.5 11.8125 84.375 15.75L68.0625 77.8125L65.4375 77.0625L81.9375 15C83.0625 10.6875 87.375 8.06253 91.5 9.00003Z" fill="#EBA352"/>
<path d="M112.5 25.125C116.063 26.8125 117.188 31.3125 115.313 35.0625L90.5626 84.375L78.0001 78L102.75 28.6875C104.625 24.9375 108.938 23.4375 112.5 25.125Z" fill="#FFDD67"/>
<path d="M112.5 25.125C112.875 25.3125 113.25 25.5 113.625 25.875C110.438 24.9375 106.875 26.625 105.188 30L80.4375 79.3125L78 78.1875L102.75 28.6875C104.625 24.9375 108.938 23.4375 112.5 25.125Z" fill="#EBA352"/>
<path d="M4.31242 54.9375C7.31242 49.125 16.6874 49.5 26.2499 60C32.9999 67.3125 34.3124 69.75 41.0624 69.5625V61.875C41.0624 61.875 55.4999 51.1875 84.1874 56.0625C84.1874 56.0625 100.5 58.3125 100.5 66.9375C100.5 66.9375 103.312 87.75 97.4999 100.875C88.8749 120.375 44.6249 125.437 30.7499 92.25C27.9374 85.6875 22.3124 80.8125 17.2499 74.625C11.4374 67.125 1.12492 61.125 4.31242 54.9375Z" fill="#FFDD67"/>
<path d="M4.3125 54.9375C4.875 53.8125 5.625 53.0625 6.5625 52.3125C6.375 52.5 6.1875 52.6875 6.1875 53.0625C3 59.4375 13.3125 65.25 19.5 72.75C24.5625 78.9375 30.1875 83.8125 33 90.375C45 119.062 79.875 119.062 94.5 105.937C81.1875 120.937 43.6875 122.437 31.125 92.25C28.3125 85.6875 22.6875 80.8125 17.625 74.625C11.4375 67.125 1.125 61.125 4.3125 54.9375ZM39.1875 69.5625C51.375 65.0625 73.125 73.3125 70.125 95.25C70.125 74.8125 51.5625 69.75 41.4375 69.75C39.9375 69.5625 39.1875 69.5625 39.1875 69.5625Z" fill="#EBA352"/>
</svg>
