<svg width="64" height="64" viewBox="0 0 64 64" fill="none" xmlns="http://www.w3.org/2000/svg">
<path d="M24 56H40M48 26V30C48 38.8 40.8 46 32 46C23.2 46 16 38.8 16 30V26M32 46V56" stroke="#DE482B" stroke-width="3" stroke-miterlimit="10" stroke-linecap="square"/>
<path d="M32 40C30.6801 39.9969 29.3742 39.7287 28.1599 39.2112C26.9456 38.6937 25.8477 37.9375 24.9313 36.9875C23.0552 35.0955 22.0018 32.5395 22 29.875V16C21.9949 14.6854 22.2501 13.3827 22.7508 12.1671C23.2515 10.9516 23.9879 9.84713 24.9175 8.91752C25.8471 7.98791 26.9516 7.25151 28.1671 6.75078C29.3827 6.25005 30.6854 5.99489 32 6.00001C37.6075 6.00001 42 10.3925 42 16V29.875C42 35.4575 37.5138 40 32 40Z" fill="#DE482B"/>
</svg>
