<svg width="60" height="60" viewBox="0 0 60 60" fill="none" xmlns="http://www.w3.org/2000/svg">
<path d="M5.73245 28.2325C5.26378 28.7013 5.00049 29.3371 5.00049 30C5.00049 30.6629 5.26378 31.2987 5.73245 31.7675L13.2325 39.2675C13.704 39.7229 14.3355 39.9749 14.991 39.9692C15.6464 39.9635 16.2735 39.7006 16.737 39.237C17.2005 38.7735 17.4634 38.1465 17.4691 37.491C17.4748 36.8355 17.2228 36.204 16.7675 35.7325L13.535 32.5L37.5 32.5C38.163 32.5 38.7989 32.2366 39.2677 31.7678C39.7366 31.2989 40 30.663 40 30C40 29.337 39.7366 28.7011 39.2677 28.2322C38.7989 27.7634 38.163 27.5 37.5 27.5L13.535 27.5L16.7675 24.2675C17.0062 24.0369 17.1967 23.761 17.3277 23.456C17.4587 23.151 17.5277 22.823 17.5306 22.491C17.5335 22.1591 17.4702 21.8299 17.3445 21.5226C17.2188 21.2154 17.0332 20.9362 16.7984 20.7015C16.5637 20.4668 16.2846 20.2811 15.9773 20.1554C15.6701 20.0297 15.3409 19.9665 15.009 19.9694C14.677 19.9723 14.349 20.0412 14.0439 20.1722C13.7389 20.3033 13.4631 20.4937 13.2325 20.7325L5.73245 28.2325ZM37.5 48.75C33.3982 48.7496 29.4096 47.4047 26.145 44.9213C22.8805 42.4379 20.52 38.9529 19.425 35H24.6875C25.8559 37.983 28.029 40.4647 30.8317 42.0166C33.6345 43.5686 36.891 44.0935 40.0395 43.5009C43.1879 42.9082 46.0307 41.2352 48.0773 38.7704C50.124 36.3056 51.2461 33.2037 51.25 30C51.2522 26.7929 50.1334 23.6859 48.0869 21.2165C46.0405 18.7471 43.1953 17.0708 40.0435 16.4775C36.8918 15.8843 33.6318 16.4114 30.8276 17.9677C28.0234 19.524 25.8514 22.0116 24.6875 25H19.425C20.3564 21.6335 22.2097 18.5941 24.776 16.2245C27.3422 13.8549 30.5194 12.2492 33.9493 11.5885C37.3792 10.9278 40.9255 11.2383 44.1884 12.485C47.4513 13.7318 50.3011 15.8652 52.4165 18.6447C54.5319 21.4243 55.8288 24.7395 56.161 28.2166C56.4932 31.6938 55.8475 35.1946 54.2968 38.3244C52.746 41.4543 50.3518 44.0887 47.384 45.9308C44.4162 47.7728 40.9929 48.7493 37.5 48.75ZM37.5 41.25C35.4044 41.2504 33.3504 40.6655 31.5694 39.5612C29.7885 38.457 28.3513 36.8772 27.42 35H33.75C34.6785 35.6964 35.7827 36.1205 36.9387 36.2247C38.0947 36.329 39.2569 36.1093 40.295 35.5902C41.3332 35.0711 42.2063 34.2732 42.8165 33.2858C43.4267 32.2985 43.75 31.1607 43.75 30C43.75 28.8393 43.4267 27.7015 42.8165 26.7142C42.2063 25.7268 41.3332 24.9289 40.295 24.4098C39.2569 23.8907 38.0947 23.671 36.9387 23.7753C35.7827 23.8795 34.6785 24.3036 33.75 25L27.42 25C28.311 23.2041 29.6657 21.679 31.3439 20.5823C33.0222 19.4857 34.963 18.8575 36.9655 18.7626C38.968 18.6677 40.9595 19.1097 42.7339 20.0428C44.5083 20.9759 46.0011 22.3662 47.0579 24.0698C48.1146 25.7734 48.697 27.7285 48.7446 29.7327C48.7922 31.7369 48.3034 33.7174 47.3288 35.4693C46.3542 37.2212 44.9291 38.6809 43.201 39.6972C41.473 40.7135 39.5047 41.2496 37.5 41.25Z" fill="#E1E1E1"/>
</svg>
