<svg width="60" height="60" viewBox="0 0 60 60" fill="none" xmlns="http://www.w3.org/2000/svg">
<path d="M28.2325 54.2675C28.7013 54.7362 29.3371 54.9995 30 54.9995C30.6629 54.9995 31.2987 54.7362 31.7675 54.2675L39.2675 46.7675C39.7229 46.296 39.9749 45.6645 39.9692 45.009C39.9635 44.3536 39.7006 43.7265 39.237 43.263C38.7735 42.7995 38.1465 42.5366 37.491 42.5309C36.8355 42.5252 36.204 42.7772 35.7325 43.2325L32.5 46.465V22.5C32.5 21.837 32.2366 21.2011 31.7678 20.7323C31.2989 20.2634 30.663 20 30 20C29.337 20 28.7011 20.2634 28.2322 20.7323C27.7634 21.2011 27.5 21.837 27.5 22.5V46.465L24.2675 43.2325C24.0369 42.9938 23.761 42.8033 23.456 42.6723C23.151 42.5413 22.823 42.4723 22.491 42.4694C22.1591 42.4665 21.8299 42.5298 21.5226 42.6555C21.2154 42.7812 20.9362 42.9668 20.7015 43.2016C20.4668 43.4363 20.2811 43.7154 20.1554 44.0227C20.0297 44.3299 19.9665 44.6591 19.9694 44.991C19.9723 45.323 20.0412 45.651 20.1722 45.9561C20.3033 46.2611 20.4937 46.5369 20.7325 46.7675L28.2325 54.2675ZM48.75 22.5C48.7496 26.6018 47.4047 30.5904 44.9213 33.855C42.4379 37.1195 38.9529 39.48 35 40.575V35.3125C37.983 34.1441 40.4647 31.971 42.0166 29.1683C43.5686 26.3655 44.0935 23.109 43.5009 19.9605C42.9082 16.8121 41.2352 13.9693 38.7704 11.9227C36.3056 9.87603 33.2037 8.75395 30 8.75005C26.7929 8.74777 23.6859 9.86663 21.2165 11.9131C18.7471 13.9595 17.0708 16.8047 16.4775 19.9565C15.8843 23.1082 16.4114 26.3682 17.9677 29.1724C19.524 31.9766 22.0116 34.1486 25 35.3125V40.575C21.6335 39.6436 18.5941 37.7903 16.2245 35.224C13.8549 32.6578 12.2492 29.4806 11.5885 26.0507C10.9278 22.6208 11.2383 19.0745 12.485 15.8116C13.7318 12.5487 15.8652 9.69893 18.6447 7.58354C21.4243 5.46815 24.7395 4.17124 28.2166 3.83902C31.6938 3.50679 35.1946 4.15245 38.3244 5.70322C41.4543 7.25399 44.0887 9.64822 45.9308 12.616C47.7728 15.5838 48.7493 19.0071 48.75 22.5ZM41.25 22.5C41.2504 24.5956 40.6655 26.6496 39.5612 28.4306C38.457 30.2115 36.8772 31.6487 35 32.58V26.25C35.6964 25.3215 36.1205 24.2173 36.2247 23.0613C36.329 21.9053 36.1093 20.7431 35.5902 19.705C35.0711 18.6668 34.2732 17.7937 33.2858 17.1835C32.2985 16.5733 31.1607 16.25 30 16.25C28.8393 16.25 27.7015 16.5733 26.7142 17.1835C25.7268 17.7937 24.9289 18.6668 24.4098 19.705C23.8907 20.7431 23.671 21.9053 23.7753 23.0613C23.8795 24.2173 24.3036 25.3215 25 26.25V32.58C23.2041 31.689 21.679 30.3343 20.5823 28.6561C19.4857 26.9778 18.8575 25.037 18.7626 23.0345C18.6677 21.032 19.1097 19.0405 20.0428 17.2661C20.9759 15.4917 22.3662 13.9989 24.0698 12.9421C25.7734 11.8854 27.7285 11.303 29.7327 11.2554C31.7369 11.2078 33.7174 11.6966 35.4693 12.6712C37.2212 13.6458 38.6809 15.0709 39.6972 16.799C40.7135 18.527 41.2496 20.4953 41.25 22.5Z" fill="#E1E1E1"/>
</svg>
