<svg width="60" height="60" viewBox="0 0 60 60" fill="none" xmlns="http://www.w3.org/2000/svg">
<path d="M31.7675 5.73252C31.2987 5.26384 30.6629 5.00055 30 5.00055C29.3371 5.00055 28.7013 5.26384 28.2325 5.73252L20.7325 13.2325C20.2771 13.704 20.0251 14.3355 20.0308 14.991C20.0365 15.6465 20.2994 16.2735 20.763 16.7371C21.2265 17.2006 21.8535 17.4635 22.509 17.4692C23.1645 17.4749 23.796 17.2229 24.2675 16.7675L27.5 13.535L27.5 37.5C27.5 38.1631 27.7634 38.7989 28.2322 39.2678C28.7011 39.7366 29.337 40 30 40C30.663 40 31.2989 39.7366 31.7678 39.2678C32.2366 38.7989 32.5 38.1631 32.5 37.5V13.535L35.7325 16.7675C35.9631 17.0063 36.239 17.1967 36.544 17.3278C36.849 17.4588 37.177 17.5278 37.509 17.5306C37.8409 17.5335 38.1701 17.4703 38.4774 17.3446C38.7846 17.2189 39.0638 17.0332 39.2985 16.7985C39.5332 16.5638 39.7189 16.2846 39.8446 15.9774C39.9703 15.6702 40.0335 15.341 40.0306 15.009C40.0277 14.6771 39.9588 14.349 39.8278 14.044C39.6967 13.739 39.5063 13.4631 39.2675 13.2325L31.7675 5.73252ZM11.25 37.5C11.2504 33.3982 12.5953 29.4097 15.0787 26.1451C17.5621 22.8806 21.0471 20.52 25 19.425V24.6875C22.017 25.856 19.5353 28.0291 17.9834 30.8318C16.4314 33.6345 15.9065 36.8911 16.4991 40.0395C17.0918 43.1879 18.7648 46.0308 21.2296 48.0774C23.6944 50.124 26.7963 51.2461 30 51.25C33.2071 51.2523 36.3141 50.1334 38.7835 48.087C41.2529 46.0406 42.9292 43.1953 43.5225 40.0436C44.1157 36.8918 43.5886 33.6318 42.0323 30.8276C40.476 28.0234 37.9884 25.8515 35 24.6875V19.425C38.3665 20.3565 41.4059 22.2098 43.7755 24.7761C46.1451 27.3423 47.7508 30.5195 48.4115 33.9494C49.0722 37.3793 48.7617 40.9256 47.515 44.1885C46.2682 47.4514 44.1348 50.3011 41.3553 52.4165C38.5757 54.5319 35.2605 55.8288 31.7834 56.161C28.3062 56.4933 24.8054 55.8476 21.6756 54.2968C18.5457 52.7461 15.9113 50.3518 14.0692 47.3841C12.2272 44.4163 11.2507 40.993 11.25 37.5ZM18.75 37.5C18.7496 35.4045 19.3345 33.3505 20.4388 31.5695C21.543 29.7885 23.1228 28.3514 25 27.42V33.75C24.3036 34.6786 23.8795 35.7827 23.7753 36.9387C23.671 38.0947 23.8907 39.2569 24.4098 40.2951C24.9289 41.3333 25.7268 42.2064 26.7142 42.8166C27.7015 43.4268 28.8393 43.75 30 43.75C31.1607 43.75 32.2985 43.4268 33.2858 42.8166C34.2732 42.2064 35.0711 41.3333 35.5902 40.2951C36.1093 39.2569 36.329 38.0947 36.2247 36.9387C36.1205 35.7827 35.6964 34.6786 35 33.75V27.42C36.7959 28.311 38.321 29.6657 39.4177 31.344C40.5143 33.0222 41.1425 34.963 41.2374 36.9655C41.3323 38.9681 40.8903 40.9596 39.9572 42.7339C39.0241 44.5083 37.6338 46.0012 35.9302 47.0579C34.2266 48.1147 32.2715 48.697 30.2673 48.7447C28.2631 48.7923 26.2826 48.3035 24.5307 47.3289C22.7788 46.3542 21.3191 44.9291 20.3028 43.2011C19.2865 41.473 18.7504 39.5048 18.75 37.5Z" fill="#E1E1E1"/>
</svg>
