<svg width="60" height="60" viewBox="0 0 60 60" fill="none" xmlns="http://www.w3.org/2000/svg">
<path d="M54.2675 31.7675C54.7362 31.2987 54.9995 30.6629 54.9995 30C54.9995 29.3371 54.7362 28.7013 54.2675 28.2325L46.7675 20.7325C46.296 20.2771 45.6645 20.0251 45.009 20.0308C44.3536 20.0365 43.7265 20.2994 43.263 20.763C42.7995 21.2265 42.5366 21.8535 42.5309 22.509C42.5252 23.1645 42.7772 23.796 43.2325 24.2675L46.465 27.5L22.5 27.5C21.837 27.5 21.2011 27.7634 20.7323 28.2322C20.2634 28.7011 20 29.337 20 30C20 30.663 20.2634 31.2989 20.7323 31.7678C21.2011 32.2366 21.837 32.5 22.5 32.5H46.465L43.2325 35.7325C42.9938 35.9631 42.8033 36.239 42.6723 36.544C42.5413 36.849 42.4723 37.177 42.4694 37.509C42.4665 37.8409 42.5298 38.1701 42.6555 38.4774C42.7812 38.7846 42.9668 39.0638 43.2016 39.2985C43.4363 39.5332 43.7154 39.7189 44.0227 39.8446C44.3299 39.9703 44.6591 40.0335 44.991 40.0306C45.323 40.0277 45.651 39.9588 45.9561 39.8278C46.2611 39.6967 46.5369 39.5063 46.7675 39.2675L54.2675 31.7675ZM22.5 11.25C26.6018 11.2504 30.5904 12.5953 33.855 15.0787C37.1195 17.5621 39.48 21.0471 40.575 25H35.3125C34.1441 22.017 31.971 19.5353 29.1683 17.9834C26.3655 16.4314 23.109 15.9065 19.9605 16.4991C16.8121 17.0918 13.9693 18.7648 11.9227 21.2296C9.87603 23.6944 8.75395 26.7963 8.75005 30C8.74777 33.2071 9.86663 36.3141 11.9131 38.7835C13.9595 41.2529 16.8047 42.9292 19.9565 43.5225C23.1082 44.1157 26.3682 43.5886 29.1724 42.0323C31.9766 40.476 34.1486 37.9884 35.3125 35H40.575C39.6436 38.3665 37.7903 41.4059 35.224 43.7755C32.6578 46.1451 29.4806 47.7508 26.0507 48.4115C22.6208 49.0722 19.0745 48.7617 15.8116 47.515C12.5487 46.2682 9.69893 44.1348 7.58354 41.3553C5.46815 38.5757 4.17124 35.2605 3.83902 31.7834C3.50679 28.3062 4.15245 24.8054 5.70322 21.6756C7.25399 18.5457 9.64822 15.9113 12.616 14.0692C15.5838 12.2272 19.0071 11.2507 22.5 11.25ZM22.5 18.75C24.5956 18.7496 26.6496 19.3345 28.4306 20.4388C30.2115 21.543 31.6487 23.1228 32.58 25H26.25C25.3215 24.3036 24.2173 23.8795 23.0613 23.7753C21.9053 23.671 20.7431 23.8907 19.705 24.4098C18.6668 24.9289 17.7937 25.7268 17.1835 26.7142C16.5733 27.7015 16.25 28.8393 16.25 30C16.25 31.1607 16.5733 32.2985 17.1835 33.2858C17.7937 34.2732 18.6668 35.0711 19.705 35.5902C20.7431 36.1093 21.9053 36.329 23.0613 36.2247C24.2173 36.1205 25.3215 35.6964 26.25 35H32.58C31.689 36.7959 30.3343 38.321 28.6561 39.4177C26.9778 40.5143 25.037 41.1425 23.0345 41.2374C21.032 41.3323 19.0405 40.8903 17.2661 39.9572C15.4917 39.0241 13.9989 37.6338 12.9421 35.9302C11.8854 34.2266 11.303 32.2715 11.2554 30.2673C11.2078 28.2631 11.6966 26.2826 12.6712 24.5307C13.6458 22.7788 15.0709 21.3191 16.799 20.3028C18.527 19.2865 20.4953 18.7504 22.5 18.75Z" fill="#E1E1E1"/>
</svg>
