<svg width="64" height="64" viewBox="0 0 64 64" fill="none" xmlns="http://www.w3.org/2000/svg">
<path d="M53.4125 18.0438C53.7875 18.4188 54 18.925 54 19.4562V58C54 59.1063 53.1063 60 52 60H12C10.8937 60 10 59.1063 10 58V6C10 4.89375 10.8937 4 12 4H38.5438C39.075 4 39.5875 4.2125 39.9625 4.5875L53.4125 18.0438V18.0438ZM49.3875 20.375L37.625 8.6125V20.375H49.3875ZM20 30.125C19.8674 30.125 19.7402 30.1777 19.6464 30.2714C19.5527 30.3652 19.5 30.4924 19.5 30.625V33.625C19.5 33.7576 19.5527 33.8848 19.6464 33.9786C19.7402 34.0723 19.8674 34.125 20 34.125H44C44.1326 34.125 44.2598 34.0723 44.3536 33.9786C44.4473 33.8848 44.5 33.7576 44.5 33.625V30.625C44.5 30.4924 44.4473 30.3652 44.3536 30.2714C44.2598 30.1777 44.1326 30.125 44 30.125H20ZM20 38.625C19.8674 38.625 19.7402 38.6777 19.6464 38.7714C19.5527 38.8652 19.5 38.9924 19.5 39.125V42.125C19.5 42.2576 19.5527 42.3848 19.6464 42.4786C19.7402 42.5723 19.8674 42.625 20 42.625H31.5C31.6326 42.625 31.7598 42.5723 31.8536 42.4786C31.9473 42.3848 32 42.2576 32 42.125V39.125C32 38.9924 31.9473 38.8652 31.8536 38.7714C31.7598 38.6777 31.6326 38.625 31.5 38.625H20Z" fill="white"/>
</svg>
