<svg width="64" height="64" viewBox="0 0 64 64" fill="none" xmlns="http://www.w3.org/2000/svg">
<path d="M57.1022 17.7778H6.89778C6.01137 17.7778 5.16126 18.1299 4.53447 18.7567C3.90768 19.3835 3.55556 20.2336 3.55556 21.12V53.5467C3.55556 54.4331 3.90768 55.2832 4.53447 55.91C5.16126 56.5368 6.01137 56.8889 6.89778 56.8889H57.1022C57.9886 56.8889 58.8387 56.5368 59.4655 55.91C60.0923 55.2832 60.4444 54.4331 60.4444 53.5467V21.12C60.4444 20.2336 60.0923 19.3835 59.4655 18.7567C58.8387 18.1299 57.9886 17.7778 57.1022 17.7778V17.7778ZM42.9867 38.8089L25.6178 46.56C25.3473 46.6816 25.0508 46.7336 24.7551 46.7112C24.4594 46.6889 24.174 46.593 23.9249 46.4322C23.6757 46.2714 23.4708 46.0509 23.3286 45.7906C23.1865 45.5304 23.1117 45.2387 23.1111 44.9422V29.44C23.1117 29.1435 23.1865 28.8518 23.3286 28.5916C23.4708 28.3313 23.6757 28.1108 23.9249 27.95C24.174 27.7892 24.4594 27.6933 24.7551 27.671C25.0508 27.6486 25.3473 27.7006 25.6178 27.8222L42.9867 35.5555C43.3021 35.6946 43.5703 35.9225 43.7586 36.2113C43.9469 36.5001 44.0472 36.8374 44.0472 37.1822C44.0472 37.527 43.9469 37.8643 43.7586 38.1531C43.5703 38.442 43.3021 38.6698 42.9867 38.8089V38.8089Z" fill="white"/>
<path d="M53.5822 5.33332C53.5822 4.86182 53.3949 4.40964 53.0615 4.07624C52.7281 3.74284 52.2759 3.55554 51.8044 3.55554H12.6933C12.2218 3.55554 11.7697 3.74284 11.4363 4.07624C11.1029 4.40964 10.9156 4.86182 10.9156 5.33332V7.1111H53.5822V5.33332Z" fill="white"/>
<path d="M57.1022 12.4445C57.1022 11.973 56.9149 11.5208 56.5815 11.1874C56.2481 10.854 55.7959 10.6667 55.3244 10.6667H9.10223C8.63073 10.6667 8.17855 10.854 7.84515 11.1874C7.51175 11.5208 7.32445 11.973 7.32445 12.4445V14.2222H57.1022V12.4445Z" fill="white"/>
</svg>
