<svg width="80" height="80" viewBox="0 0 80 80" fill="none" xmlns="http://www.w3.org/2000/svg">
<path d="M42.5 52.875L52.25 54.75L60.25 13.625C60.75 10.875 59 8.12498 56.375 7.62498C53.625 7.12498 51 8.99998 50.5 11.75L42.5 52.875Z" fill="white"/>
<path d="M56.5 7.625C56.125 7.5 55.875 7.5 55.5 7.5C57.75 8.375 59 10.75 58.5 13.25L50.5 54.375L52.25 54.75L60.25 13.625C60.875 10.75 59.125 8.125 56.5 7.625" fill="#E3E3E3"/>
<path d="M32.5 54.125H44.25V8.75C44.25 5.375 41.625 2.5 38.375 2.5C35.25 2.5 32.5 5.25 32.5 8.75V54.125Z" fill="white"/>
<path d="M38.5 2.5C38.25 2.5 37.875 2.5 37.625 2.625C40.5 3.125 42.625 5.625 42.625 8.75V54.25H44.375V8.75C44.375 5.25 41.75 2.5 38.5 2.5Z" fill="#E3E3E3"/>
<path d="M26.25 54L36.25 51.375L25.375 10C24.625 7.12502 21.75 5.37502 19 6.00002C16.25 6.75002 14.625 9.62502 15.375 12.5L26.25 54Z" fill="white"/>
<path d="M19 6.00002L18.25 6.37502C20.75 6.25002 23 7.87502 23.75 10.5L34.625 51.875L36.375 51.375L25.375 10C24.625 7.12502 21.75 5.37502 19 6.00002" fill="#E3E3E3"/>
<path d="M4.99999 16.75C2.62499 17.875 1.87499 20.875 3.12499 23.375L19.625 56.25L28 52L11.5 19.125C10.25 16.625 7.37499 15.625 4.99999 16.75" fill="white"/>
<path d="M5 16.75C4.75 16.875 4.5 17 4.25 17.25C6.375 16.625 8.75 17.75 9.875 20L26.375 52.875L28 52.125L11.5 19.125C10.25 16.625 7.375 15.625 5 16.75" fill="#E3E3E3"/>
<path d="M77.125 36.625C75.125 32.75 68.875 33 62.5 40C58 44.875 57.125 46.5 52.625 46.375V41.25C52.625 41.25 43 34.125 23.875 37.375C23.875 37.375 13 38.875 13 44.625C13 44.625 11.125 58.5 15 67.25C20.75 80.25 50.25 83.625 59.5 61.5C61.375 57.125 65.125 53.875 68.5 49.75C72.375 44.75 79.25 40.75 77.125 36.625" fill="white"/>
<path d="M77.125 36.625C76.75 35.875 76.25 35.375 75.625 34.875C75.75 35 75.875 35.125 75.875 35.375C78 39.625 71.125 43.5 67 48.5C63.625 52.625 59.875 55.875 58 60.25C50 79.375 26.75 79.375 17 70.625C25.875 80.625 50.875 81.625 59.25 61.5C61.125 57.125 64.875 53.875 68.25 49.75C72.375 44.75 79.25 40.75 77.125 36.625V36.625ZM53.875 46.375C45.75 43.375 31.25 48.875 33.25 63.5C33.25 49.875 45.625 46.5 52.375 46.5C53.375 46.375 53.875 46.375 53.875 46.375" fill="#E3E3E3"/>
</svg>
