<svg width="80" height="80" viewBox="0 0 80 80" fill="none" xmlns="http://www.w3.org/2000/svg">
<path d="M37.5 52.875L27.75 54.75L19.75 13.625C19.25 10.875 21 8.12498 23.625 7.62498C26.375 7.12498 29 8.99998 29.5 11.75L37.5 52.875Z" fill="white"/>
<path d="M23.5 7.625C23.875 7.5 24.125 7.5 24.5 7.5C22.25 8.375 21 10.75 21.5 13.25L29.5 54.375L27.75 54.75L19.75 13.625C19.125 10.75 20.875 8.125 23.5 7.625" fill="#E3E3E3"/>
<path d="M47.5 54.125H35.75V8.75C35.75 5.375 38.375 2.5 41.625 2.5C44.75 2.5 47.5 5.25 47.5 8.75V54.125Z" fill="white"/>
<path d="M41.5 2.5C41.75 2.5 42.125 2.5 42.375 2.625C39.5 3.125 37.375 5.625 37.375 8.75V54.25H35.625V8.75C35.625 5.25 38.25 2.5 41.5 2.5Z" fill="#E3E3E3"/>
<path d="M53.75 54L43.75 51.375L54.625 10C55.375 7.12502 58.25 5.37502 61 6.00002C63.75 6.75002 65.375 9.62502 64.625 12.5L53.75 54Z" fill="white"/>
<path d="M61 6.00002L61.75 6.37502C59.25 6.25002 57 7.87502 56.25 10.5L45.375 51.875L43.625 51.375L54.625 10C55.375 7.12502 58.25 5.37502 61 6.00002" fill="#E3E3E3"/>
<path d="M75 16.75C77.375 17.875 78.125 20.875 76.875 23.375L60.375 56.25L52 52L68.5 19.125C69.75 16.625 72.625 15.625 75 16.75" fill="white"/>
<path d="M75 16.75C75.25 16.875 75.5 17 75.75 17.25C73.625 16.625 71.25 17.75 70.125 20L53.625 52.875L52 52.125L68.5 19.125C69.75 16.625 72.625 15.625 75 16.75" fill="#E3E3E3"/>
<path d="M2.87498 36.625C4.87498 32.75 11.125 33 17.5 40C22 44.875 22.875 46.5 27.375 46.375V41.25C27.375 41.25 37 34.125 56.125 37.375C56.125 37.375 67 38.875 67 44.625C67 44.625 68.875 58.5 65 67.25C59.25 80.25 29.75 83.625 20.5 61.5C18.625 57.125 14.875 53.875 11.5 49.75C7.62498 44.75 0.749982 40.75 2.87498 36.625" fill="white"/>
<path d="M2.875 36.625C3.25 35.875 3.75 35.375 4.375 34.875C4.25 35 4.125 35.125 4.125 35.375C2 39.625 8.875 43.5 13 48.5C16.375 52.625 20.125 55.875 22 60.25C30 79.375 53.25 79.375 63 70.625C54.125 80.625 29.125 81.625 20.75 61.5C18.875 57.125 15.125 53.875 11.75 49.75C7.625 44.75 0.750002 40.75 2.875 36.625V36.625ZM26.125 46.375C34.25 43.375 48.75 48.875 46.75 63.5C46.75 49.875 34.375 46.5 27.625 46.5C26.625 46.375 26.125 46.375 26.125 46.375" fill="#E3E3E3"/>
</svg>
